UNKNOWN
nRows=4
nColumns=264

# SIMM Motion File Header:
name UNKNOWN
datacolumns 264
datarows 4
otherdata 1
range 1.69167000 1.71667000
endheader
time	pelvis_tx	pelvis_ty	pelvis_tz	pelvis_list	pelvis_rotation	pelvis_tilt	hip_flexion_r	hip_adduction_r	hip_rotation_r	knee_angle_r	ankle_angle_r	subtalar_angle_r	mtp_angle_r	hip_flexion_l	hip_adduction_l	hip_rotation_l	knee_angle_l	ankle_angle_l	subtalar_angle_l	mtp_angle_l	lumbar_extension	lumbar_bending	lumbar_rotation	midhip_tx	midhip_ty	midhip_tz	hip_r_tx	hip_r_ty	hip_r_tz	hip_l_tx	hip_l_ty	hip_l_tz	knee_r_tx	knee_r_ty	knee_r_tz	knee_l_tx	knee_l_ty	knee_l_tz	ankle_r_tx	ankle_r_ty	ankle_r_tz	ankle_l_tx	ankle_l_ty	ankle_l_tz	midasis_tx	midasis_ty	midasis_tz	asis_r_tx	asis_r_ty	asis_r_tz	asis_l_tx	asis_l_ty	asis_l_tz	psis_r_tx	psis_r_ty	psis_r_tz	psis_l_tx	psis_l_ty	psis_l_tz	epicondLat_r_tx	epicondLat_r_ty	epicondLat_r_tz	epicondLat_l_tx	epicondLat_l_ty	epicondLat_l_tz	epicondMed_r_tx	epicondMed_r_ty	epicondMed_r_tz	epicondMed_l_tx	epicondMed_l_ty	epicondMed_l_tz	malleolusLat_r_tx	malleolusLat_r_ty	malleolusLat_r_tz	malleolusLat_l_tx	malleolusLat_l_ty	malleolusLat_l_tz	malleolusMedv_r_tx	malleolusMedv_r_ty	malleolusMedv_r_tz	malleolusMedv_l_tx	malleolusMedv_l_ty	malleolusMedv_l_tz	neck_tx	neck_ty	neck_tz	subclavicle_r_tx	subclavicle_r_ty	subclavicle_r_tz	subclavicle_l_tx	subclavicle_l_ty	subclavicle_l_tz	sternalnotch_tx	sternalnotch_ty	sternalnotch_tz	xyphoidprocess_tx	xyphoidprocess_ty	xyphoidprocess_tz	thighwand_r_tx	thighwand_r_ty	thighwand_r_tz	thighwand_l_tx	thighwand_l_ty	thighwand_l_tz	upperleg1_r_tx	upperleg1_r_ty	upperleg1_r_tz	upperleg1_l_tx	upperleg1_l_ty	upperleg1_l_tz	upperleg2_r_tx	upperleg2_r_ty	upperleg2_r_tz	upperleg2_l_tx	upperleg2_l_ty	upperleg2_l_tz	shankwand_r_tx	shankwand_r_ty	shankwand_r_tz	shankwand_l_tx	shankwand_l_ty	shankwand_l_tz	lowerleg1_r_tx	lowerleg1_r_ty	lowerleg1_r_tz	lowerleg1_l_tx	lowerleg1_l_ty	lowerleg1_l_tz	toe_r_tx	toe_r_ty	toe_r_tz	toe_l_tx	toe_l_ty	toe_l_tz	ground_force_vx	ground_force_vy	ground_force_vz	ground_force_px	ground_force_py	ground_force_pz	ground_force_vx	ground_force_vy	ground_force_vz	ground_force_px	ground_force_py	ground_force_pz	ground_torque_x	ground_torque_y	ground_torque_z	ground_torque_x	ground_torque_y	ground_torque_z	ground_marker_px	ground_marker_py	ground_marker_pz	ground_marker_px	ground_marker_py	ground_marker_pz	ground_marker_px	ground_marker_py	ground_marker_pz	ground_marker_px	ground_marker_py	ground_marker_pz	ground_marker_px	ground_marker_py	ground_marker_pz	ground_marker_px	ground_marker_py	ground_marker_pz	ground_marker_px	ground_marker_py	ground_marker_pz	ground_marker_px	ground_marker_py	ground_marker_pz	ground_marker_px	ground_marker_py	ground_marker_pz	ground_marker_px	ground_marker_py	ground_marker_pz	ground_marker_px	ground_marker_py	ground_marker_pz	ground_marker_px	ground_marker_py	ground_marker_pz	ground_marker_px	ground_marker_py	ground_marker_pz	ground_marker_px	ground_marker_py	ground_marker_pz	ground_marker_px	ground_marker_py	ground_marker_pz	ground_marker_px	ground_marker_py	ground_marker_pz	ground_marker_px	ground_marker_py	ground_marker_pz	ground_marker_px	ground_marker_py	ground_marker_pz	ground_marker_px	ground_marker_py	ground_marker_pz	ground_marker_px	ground_marker_py	ground_marker_pz	ground_marker_px	ground_marker_py	ground_marker_pz	ground_marker_px	ground_marker_py	ground_marker_pz	ground_marker_px	ground_marker_py	ground_marker_pz	ground_marker_px	ground_marker_py	ground_marker_pz	ground_marker_px	ground_marker_py	ground_marker_pz	ground_marker_px	ground_marker_py	ground_marker_pz	ground_marker_px	ground_marker_py	ground_marker_pz	ground_marker_px	ground_marker_py	ground_marker_pz	ground_marker_px	ground_marker_py	ground_marker_pz	ground_marker_px	ground_marker_py	ground_marker_pz	ground_marker_px	ground_marker_py	ground_marker_pz	ground_marker_px	ground_marker_py	ground_marker_pz	ground_marker_px	ground_marker_py	ground_marker_pz	ground_marker_px	ground_marker_py	ground_marker_pz	ground_marker_px	ground_marker_py	ground_marker_pz	ground_marker_px	ground_marker_py	ground_marker_pz	ground_marker_px	ground_marker_py	ground_marker_pz	
      1.69167000	      1.65714964	      0.89459682	     -0.24754688	     -1.33854806	     -5.99645707	      1.11621708	    -14.53699514	      3.37111794	     17.44224091	    -14.73166553	     21.04438914	     -0.00001071	      0.00000000	     21.65531782	     -2.20038356	      8.14128082	     -0.95238044	     -1.79959317	      0.00017301	      0.00000000	     -7.70174598	      6.27548296	      4.04285237	      1.61110300	      0.85861500	     -0.24146700	      1.58957100	      0.85948800	     -0.15404000	      1.63263500	      0.85774200	     -0.32889400	      1.51267100	      0.45295500	     -0.19099500	      1.75644200	      0.44980500	     -0.31302500	      1.31373000	      0.08786200	     -0.21969600	      1.91289200	      0.09068300	     -0.30049800	      1.67797400	      0.93412700	     -0.23597700	      1.66428000	      0.92725800	     -0.11585500	      1.69166800	      0.94099700	     -0.35609900	      1.48653000	      0.97071300	     -0.22212200	      1.50186300	      0.97041100	     -0.30824900	      1.51031800	      0.44543000	     -0.13132300	      1.77121500	      0.45923400	     -0.37261700	      1.49145300	      0.45646000	     -0.24245800	      1.74904700	      0.43177900	     -0.26405700	      1.30358500	      0.08991700	     -0.18105900	      1.89482500	      0.08219400	     -0.33400100	      1.32687400	      0.09860000	     -0.24855500	      1.91353100	      0.10842300	     -0.27499700	      1.50558600	      1.40494900	     -0.22307200	      1.62538700	      1.31385600	     -0.17900800	      1.62685400	      1.31957100	     -0.28570900	      1.61020300	      1.32680200	     -0.22927000	      1.67233900	      1.15514700	     -0.24922200	      1.57551300	      0.53570700	     -0.05191800	      1.86811600	      0.58429200	     -0.31752500	      1.59699900	      0.60277100	     -0.11142100	      1.78528300	      0.60755200	     -0.36011300	      1.58184300	      0.52005200	     -0.14142500	      1.79476700	      0.52030000	     -0.35629100	      1.38485100	      0.19102300	     -0.08676600	      1.86121600	      0.21770800	     -0.42386000	      1.35701000	      0.17270100	     -0.16094600	      1.86542300	      0.18018300	     -0.35166900	      1.42424200	      0.04029700	     -0.19149700	      2.03574600	      0.09712600	     -0.31276700	     79.23556319	    759.93274156	    -16.74479294	      1.43896191	      0.00000000	     -0.19903333	      0.00000000	      0.00000000	      0.00000000	      1.87186478	      0.00000000	     -0.27712816	      0.00000000	      4.65377686	      0.00000000	      0.00000000	      0.00000000	      0.00000000	      1.61110282	      0.85861504	     -0.24146694	      1.58957064	      0.85948837	     -0.15404023	      1.63263500	      0.85774165	     -0.32889363	      1.51267111	      0.45295513	     -0.19099468	      1.75644243	      0.44980487	     -0.31302455	      1.31373036	      0.08786182	     -0.21969634	      1.91289234	      0.09068269	     -0.30049753	      1.67797387	      0.93412727	     -0.23597696	      1.66428006	      0.92725790	     -0.11585461	      1.69166768	      0.94099665	     -0.35609931	      1.48653007	      0.97071350	     -0.22212169	      1.50186336	      0.97041082	     -0.30824935	      1.51031780	      0.44542971	     -0.13132294	      1.77121532	      0.45923439	     -0.37261716	      1.49145317	      0.45646006	     -0.24245843	      1.74904668	      0.43177924	     -0.26405659	      1.30358541	      0.08991713	     -0.18105884	      1.89482498	      0.08219359	     -0.33400130	      1.32687378	      0.09860028	     -0.24855490	      1.91353059	      0.10842299	     -0.27499670	      1.50558555	      1.40494859	     -0.22307159	      1.62538731	      1.31385565	     -0.17900787	      1.62685406	      1.31957114	     -0.28570941	      1.61020339	      1.32680154	     -0.22926982	      1.67233920	      1.15514684	     -0.24922243	      1.57551348	      0.53570718	     -0.05191767	      1.86811650	      0.58429176	     -0.31752482	      1.59699857	      0.60277146	     -0.11142123	      1.78528309	      0.60755157	     -0.36011267	      1.58184302	      0.52005208	     -0.14142488	      1.79476702	      0.52029979	     -0.35629094	      1.38485074	      0.19102257	     -0.08676617	      1.86121643	      0.21770774	     -0.42385960	      1.35701001	      0.17270087	     -0.16094573	      1.86542261	      0.18018304	     -0.35166886	      1.42424166	      0.04029659	     -0.19149682	      2.03574634	      0.09712645	     -0.31276676
      1.70000000	      1.66747743	      0.89402978	     -0.24757340	     -1.19437574	     -6.16456065	      1.08106096	    -14.80774714	      3.14866168	     17.45374797	    -15.43032381	     20.55713277	     -0.00001033	      0.00000000	     21.50566832	     -1.98893221	      7.71727462	     -0.99625462	     -1.83554788	      0.00016880	      0.00000000	     -7.56638954	      6.06337146	      4.09352132	      1.62151900	      0.85797700	     -0.24190500	      1.59966900	      0.85861400	     -0.15455500	      1.64336800	      0.85734100	     -0.32925500	      1.52099300	      0.45265700	     -0.19105400	      1.76690300	      0.44922900	     -0.31278300	      1.31614600	      0.09031900	     -0.21905200	      1.92049900	      0.08922700	     -0.29905800	      1.68818300	      0.93342900	     -0.23618900	      1.67417300	      0.92625700	     -0.11613600	      1.70219300	      0.94060200	     -0.35624200	      1.49654300	      0.96992800	     -0.22311800	      1.51224200	      0.97003800	     -0.30900300	      1.51837600	      0.44486800	     -0.13136600	      1.78063800	      0.45830800	     -0.37207600	      1.49981100	      0.45636100	     -0.24263800	      1.75873600	      0.43172100	     -0.26310700	      1.30568800	      0.09281700	     -0.18052400	      1.90240900	      0.08073200	     -0.33254800	      1.32893700	      0.10146300	     -0.24832000	      1.92124900	      0.10694700	     -0.27368000	      1.51525500	      1.40407200	     -0.22392400	      1.63519400	      1.31333100	     -0.17909500	      1.63670700	      1.31902000	     -0.28634200	      1.61992000	      1.32612600	     -0.22984700	      1.68259800	      1.15472000	     -0.24946900	      1.58367300	      0.53500200	     -0.05185000	      1.87767500	      0.58353200	     -0.31655600	      1.60597000	      0.60223700	     -0.11123800	      1.79508100	      0.60702200	     -0.35978700	      1.59039200	      0.51917400	     -0.14155400	      1.80484500	      0.52004200	     -0.35544100	      1.38781100	      0.19316100	     -0.08625500	      1.86942000	      0.21608500	     -0.42277800	      1.35989200	      0.17481700	     -0.16063200	      1.87142300	      0.17859300	     -0.35084600	      1.42476700	      0.04036700	     -0.19108800	      2.04335700	      0.09503100	     -0.31201600	     87.20678732	    755.99489135	    -17.06185156	      1.43942700	      0.00000000	     -0.19883127	      0.00000000	      0.00000000	      0.00000000	      1.88319151	      0.00000000	     -0.27688078	      0.00000000	      4.40518652	      0.00000000	      0.00000000	      0.00000000	      0.00000000	      1.62151873	      0.85797727	     -0.24190480	      1.59966898	      0.85861379	     -0.15455492	      1.64336848	      0.85734069	     -0.32925469	      1.52099347	      0.45265746	     -0.19105366	      1.76690280	      0.44922909	     -0.31278333	      1.31614578	      0.09031907	     -0.21905184	      1.92049909	      0.08922663	     -0.29905760	      1.68818271	      0.93342930	     -0.23618892	      1.67417252	      0.92625660	     -0.11613620	      1.70219290	      0.94060200	     -0.35624164	      1.49654317	      0.96992755	     -0.22311765	      1.51224160	      0.97003847	     -0.30900276	      1.51837623	      0.44486791	     -0.13136555	      1.78063774	      0.45830840	     -0.37207568	      1.49981070	      0.45636100	     -0.24263799	      1.75873649	      0.43172094	     -0.26310688	      1.30568755	      0.09281741	     -0.18052411	      1.90240920	      0.08073229	     -0.33254787	      1.32893729	      0.10146296	     -0.24831955	      1.92124939	      0.10694686	     -0.27367982	      1.51525545	      1.40407205	     -0.22392397	      1.63519418	      1.31333077	     -0.17909481	      1.63670731	      1.31901979	     -0.28634173	      1.61991990	      1.32612646	     -0.22984704	      1.68259799	      1.15472019	     -0.24946903	      1.58367300	      0.53500187	     -0.05185028	      1.87767518	      0.58353245	     -0.31655568	      1.60597026	      0.60223746	     -0.11123844	      1.79508138	      0.60702169	     -0.35978654	      1.59039164	      0.51917410	     -0.14155352	      1.80484521	      0.52004153	     -0.35544077	      1.38781071	      0.19316147	     -0.08625532	      1.86942017	      0.21608548	     -0.42277795	      1.35989249	      0.17481700	     -0.16063185	      1.87142277	      0.17859337	     -0.35084602	      1.42476666	      0.04036725	     -0.19108763	      2.04335713	      0.09503060	     -0.31201622
      1.70833000	      1.67780294	      0.89355457	     -0.24781880	     -0.98317084	     -6.32539773	      1.06847265	    -14.99217627	      2.84139225	     17.31916404	    -16.30923768	     20.00453643	     -0.00000531	      0.00000000	     21.32720116	     -1.67188015	      7.38877464	     -1.25053520	     -1.88189937	      0.00016500	      0.00000000	     -7.44666809	      5.75963512	      4.33893846	      1.63142700	      0.85740100	     -0.24244100	      1.60937200	      0.85793100	     -0.15514200	      1.65348300	      0.85687100	     -0.32973900	      1.53012700	      0.45159600	     -0.19096400	      1.77655700	      0.44923600	     -0.31234700	      1.31866800	      0.09314400	     -0.21833700	      1.92664100	      0.08724000	     -0.29775400	      1.69863600	      0.93287200	     -0.23657600	      1.68443200	      0.92536700	     -0.11661000	      1.71284100	      0.94037700	     -0.35654300	      1.50674300	      0.96932300	     -0.22402100	      1.52275600	      0.96970400	     -0.30964000	      1.52662100	      0.44445100	     -0.13124700	      1.79013400	      0.45747500	     -0.37145800	      1.50907400	      0.45519000	     -0.24269300	      1.76697100	      0.43152200	     -0.26360900	      1.30790000	      0.09609700	     -0.17992700	      1.90846800	      0.07882300	     -0.33121900	      1.33170700	      0.10402600	     -0.24759100	      1.92754200	      0.10514200	     -0.27240900	      1.52487700	      1.40329100	     -0.22477900	      1.64467600	      1.31262000	     -0.17981400	      1.64680600	      1.31894300	     -0.28701900	      1.62973600	      1.32561600	     -0.23046900	      1.69285400	      1.15453300	     -0.25083900	      1.59201800	      0.53442100	     -0.05163700	      1.88750600	      0.58282100	     -0.31539400	      1.61469000	      0.60153500	     -0.11117700	      1.80585100	      0.60673300	     -0.35936300	      1.59929500	      0.51816500	     -0.14152900	      1.81488300	      0.51977600	     -0.35513600	      1.39092300	      0.19565200	     -0.08561500	      1.87660100	      0.21410300	     -0.42170500	      1.36325000	      0.17734000	     -0.16024500	      1.87792800	      0.17689400	     -0.34981200	      1.42540200	      0.04044000	     -0.19065800	      2.04936500	      0.09195100	     -0.31109300	     95.15885860	    747.69297436	    -17.64611460	      1.43988708	      0.00000000	     -0.19863029	      0.00000000	      0.00000000	      0.00000000	      1.89341747	      0.00000000	     -0.27666867	      0.00000000	      4.13012695	      0.00000000	      0.00000000	      0.00000000	      0.00000000	      1.63142729	      0.85740113	     -0.24244052	      1.60937154	      0.85793084	     -0.15514168	      1.65348303	      0.85687137	     -0.32973936	      1.53012717	      0.45159581	     -0.19096358	      1.77655685	      0.44923577	     -0.31234720	      1.31866837	      0.09314366	     -0.21833690	      1.92664099	      0.08723993	     -0.29775417	      1.69863605	      0.93287241	     -0.23657617	      1.68443155	      0.92536747	     -0.11660971	      1.71284068	      0.94037735	     -0.35654262	      1.50674307	      0.96932340	     -0.22402097	      1.52275574	      0.96970403	     -0.30963951	      1.52662086	      0.44445142	     -0.13124664	      1.79013395	      0.45747453	     -0.37145764	      1.50907362	      0.45519039	     -0.24269325	      1.76697099	      0.43152183	     -0.26360905	      1.30790019	      0.09609723	     -0.17992695	      1.90846801	      0.07882299	     -0.33121905	      1.33170688	      0.10402644	     -0.24759075	      1.92754185	      0.10514157	     -0.27240878	      1.52487659	      1.40329146	     -0.22477907	      1.64467561	      1.31262004	     -0.17981447	      1.64680564	      1.31894290	     -0.28701895	      1.62973571	      1.32561648	     -0.23046875	      1.69285393	      1.15453279	     -0.25083920	      1.59201753	      0.53442138	     -0.05163739	      1.88750553	      0.58282137	     -0.31539401	      1.61468995	      0.60153478	     -0.11117745	      1.80585134	      0.60673267	     -0.35936335	      1.59929490	      0.51816493	     -0.14152867	      1.81488299	      0.51977617	     -0.35513550	      1.39092314	      0.19565237	     -0.08561458	      1.87660134	      0.21410327	     -0.42170471	      1.36324954	      0.17733955	     -0.16024467	      1.87792802	      0.17689383	     -0.34981248	      1.42540240	      0.04044041	     -0.19065788	      2.04936528	      0.09195079	     -0.31109276
      1.71667000	      1.68839081	      0.89311505	     -0.24819900	     -0.76272051	     -6.43466682	      1.04547326	    -15.15887457	      2.51621068	     17.08288396	    -17.21666622	     19.32297495	      0.00000247	      0.00000000	     21.13098307	     -1.29927048	      7.22939152	     -1.68703063	     -1.88209957	      0.00016150	      0.00000000	     -7.26454669	      5.44552309	      4.30405052	      1.64173300	      0.85707400	     -0.24324800	      1.61963600	      0.85733200	     -0.15595800	      1.66382900	      0.85681700	     -0.33053700	      1.53934200	      0.45058200	     -0.19098200	      1.78576900	      0.44925500	     -0.31174900	      1.32124300	      0.09632600	     -0.21753600	      1.93157000	      0.08465100	     -0.29651100	      1.70920800	      0.93244100	     -0.23706200	      1.69484300	      0.92459300	     -0.11709600	      1.72357300	      0.94028800	     -0.35702900	      1.51712500	      0.96884800	     -0.22480400	      1.53347400	      0.96940000	     -0.31016200	      1.53507500	      0.44415200	     -0.13095900	      1.79962800	      0.45674600	     -0.37079000	      1.51913300	      0.45379100	     -0.24289200	      1.77500700	      0.43140800	     -0.26386300	      1.31018200	      0.09974300	     -0.17924800	      1.91326800	      0.07638000	     -0.32994200	      1.33489100	      0.10661100	     -0.24646300	      1.93219400	      0.10272200	     -0.27116000	      1.53438400	      1.40282800	     -0.22605700	      1.65435700	      1.31245000	     -0.18088700	      1.65686700	      1.31871300	     -0.28765900	      1.63961800	      1.32527300	     -0.23118300	      1.70323000	      1.15445500	     -0.25145300	      1.60054800	      0.53399100	     -0.05127600	      1.89753900	      0.58207600	     -0.31413500	      1.62360400	      0.60052600	     -0.11113200	      1.81649700	      0.60659600	     -0.35884700	      1.60832900	      0.51729000	     -0.14098200	      1.82467000	      0.51923300	     -0.35471600	      1.39422500	      0.19851500	     -0.08482700	      1.88288300	      0.21184400	     -0.42063000	      1.36657100	      0.18036300	     -0.15943500	      1.88377300	      0.17466500	     -0.34854000	      1.42614800	      0.04051800	     -0.19021100	      2.05393800	      0.08796800	     -0.30990400	    102.91561190	    735.03631888	    -18.19615563	      1.44031665	      0.00000000	     -0.19845844	      0.00000000	      0.00000000	      0.00000000	      1.90249996	      0.00000000	     -0.27649312	      0.00000000	      3.85511548	      0.00000000	      0.00000000	      0.00000000	      0.00000000	      1.64173269	      0.85707426	     -0.24324761	      1.61963606	      0.85733175	     -0.15595788	      1.66382921	      0.85681683	     -0.33053735	      1.53934228	      0.45058179	     -0.19098242	      1.78576899	      0.44925481	     -0.31174928	      1.32124317	      0.09632564	     -0.21753636	      1.93156958	      0.08465139	     -0.29651105	      1.70920825	      0.93244058	     -0.23706250	      1.69484305	      0.92459327	     -0.11709637	      1.72357333	      0.94028789	     -0.35702863	      1.51712549	      0.96884781	     -0.22480404	      1.53347445	      0.96940005	     -0.31016186	      1.53507531	      0.44415197	     -0.13095932	      1.79962850	      0.45674589	     -0.37078959	      1.51913321	      0.45379099	     -0.24289222	      1.77500689	      0.43140751	     -0.26386261	      1.31018186	      0.09974283	     -0.17924836	      1.91326797	      0.07637971	     -0.32994202	      1.33489072	      0.10661103	     -0.24646318	      1.93219435	      0.10272161	     -0.27116027	      1.53438354	      1.40282786	     -0.22605728	      1.65435719	      1.31245041	     -0.18088683	      1.65686655	      1.31871259	     -0.28765899	      1.63961828	      1.32527256	     -0.23118319	      1.70323026	      1.15445530	     -0.25145257	      1.60054791	      0.53399080	     -0.05127611	      1.89753950	      0.58207583	     -0.31413546	      1.62360358	      0.60052586	     -0.11113157	      1.81649733	      0.60659581	     -0.35884693	      1.60832906	      0.51729035	     -0.14098245	      1.82466996	      0.51923329	     -0.35471576	      1.39422548	      0.19851501	     -0.08482707	      1.88288343	      0.21184416	     -0.42063004	      1.36657059	      0.18036337	     -0.15943550	      1.88377261	      0.17466541	     -0.34853998	      1.42614818	      0.04051808	     -0.19021121	      2.05393767	      0.08796838	     -0.30990392
